<?xml version="1.0" encoding="utf-8"?>
<!-- Generator: Adobe Illustrator 24.0.2, SVG Export Plug-In . SVG Version: 6.00 Build 0)  -->
<svg version="1.1" xmlns="http://www.w3.org/2000/svg" xmlns:xlink="http://www.w3.org/1999/xlink" x="0px" y="0px"
	 viewBox="0 0 100 100" style="enable-background:new 0 0 100 100;" xml:space="preserve">
<style type="text/css">
	.st0{fill:#C1272D;}
	.st1{fill:url(#SVGID_3_);}
	.st2{fill:#FEF5F8;}
	.st3{fill:#B42022;}
	.st4{fill:#FAFAFA;stroke:#CCCCCC;stroke-miterlimit:10;}
	.st5{fill:#FFFFFF;stroke:#B3B3B3;stroke-miterlimit:10;}
	.st6{fill:#333333;}
	.st7{display:none;}
	.st8{display:inline;}
	.st9{fill:#00FFFF;}
</style>
<g id="Capa_1">
	<g>
		<linearGradient id="SVGID_2_" gradientUnits="userSpaceOnUse" x1="9.7329" y1="12.7435" x2="89.2047" y2="86.2735">
			<stop  offset="0" style="stop-color:#8F0001"/>
			<stop  offset="1" style="stop-color:#ED1C24"/>
		</linearGradient>
		<circle style="fill:url(#SVGID_2_);" cx="50" cy="50" r="50"/>
		<g>
			<g>
				<path class="st2" d="M51.35,74.32c-2.99,0-5.41-2.42-5.41-5.41V31.08c0-2.99,2.42-5.41,5.41-5.41c2.99,0,5.41,2.42,5.41,5.41
					v37.84C56.76,71.9,54.34,74.32,51.35,74.32z"/>
			</g>
			<g>
				<path class="st2" d="M70.27,55.41H32.43c-2.99,0-5.41-2.42-5.41-5.41s2.42-5.41,5.41-5.41h37.84c2.99,0,5.41,2.42,5.41,5.41
					S73.26,55.41,70.27,55.41z"/>
			</g>
		</g>
	</g>
</g>
<g id="Capa_2" class="st7">
</g>
</svg>
