<?xml version="1.0" encoding="utf-8"?>
<!-- Generator: Adobe Illustrator 24.0.2, SVG Export Plug-In . SVG Version: 6.00 Build 0)  -->
<svg version="1.1" id="Capa_1" xmlns="http://www.w3.org/2000/svg" xmlns:xlink="http://www.w3.org/1999/xlink" x="0px" y="0px"
	 viewBox="0 0 69 69" style="enable-background:new 0 0 69 69;" xml:space="preserve">
<style type="text/css">
	.st0{fill:#22324E;}
	.st1{fill:#FF6822;}
	.st2{fill:none;}
	.st3{fill:#F15A24;}
	.st4{fill:#EEEEEC;}
	.st5{clip-path:url(#SVGID_2_);}
	.st6{fill:#4D4D4D;}
	.st7{fill:#222221;}
	.st8{fill:#FFFFFF;}
	.st9{fill:none;stroke:#999999;stroke-miterlimit:10;}
	.st10{fill:none;stroke:#F15A24;stroke-width:8;stroke-linecap:round;stroke-linejoin:round;stroke-miterlimit:10;}
</style>
<g>
	<path class="st3" d="M27.25,17.67h11.52c0.44,0,0.8-0.36,0.8-0.8c0-0.44-0.36-0.8-0.8-0.8H27.25c-0.44,0-0.8,0.36-0.8,0.8
		C26.45,17.31,26.81,17.67,27.25,17.67z"/>
	<path class="st3" d="M49,47.6V21.2c0-0.01,0-0.01,0-0.02c0-0.01,0-0.01,0-0.02V14.5c0-0.29-0.15-0.55-0.4-0.7
		c-4.25-2.43-12.33-2.76-14.84-2.8c-0.03,0-0.06-0.01-0.09,0l-0.16,0l-0.18,0c-0.03,0-0.06,0-0.09,0c-2.5,0.04-10.59,0.37-14.84,2.8
		c-0.25,0.14-0.4,0.41-0.4,0.7v38.52c0,0.17,0.05,0.33,0.15,0.47c0.14,0.2,3.67,4.94,15.09,5.06c0.03,0,0.06,0.01,0.09,0.01l0.17,0
		l0.17,0c0.03,0,0.06,0,0.09-0.01c11.42-0.12,14.95-4.86,15.09-5.06c0.1-0.14,0.15-0.3,0.15-0.47v-5.39c0-0.01,0-0.01,0-0.02
		C49,47.61,49,47.61,49,47.6z M19.61,21.99h27.79v24.82H19.61V21.99z M33.34,12.61c0.02,0,0.04,0,0.06,0l0.11,0l0.09,0
		c0.02,0,0.04,0,0.06,0c1.6,0.03,9.54,0.26,13.74,2.38v5.4H19.61v-5.4C23.8,12.86,31.75,12.63,33.34,12.61z M33.66,56.94
		c-0.02,0-0.04,0-0.07,0l-0.1,0l-0.09,0c-0.02,0-0.04,0-0.07,0c-9.34-0.08-12.99-3.41-13.73-4.22v-4.3h27.79v4.3
		C46.64,53.54,42.99,56.86,33.66,56.94z"/>
	<path class="st3" d="M26.57,51.2h-3.38c-0.44,0-0.8,0.36-0.8,0.8c0,0.44,0.36,0.8,0.8,0.8h3.38c0.44,0,0.8-0.36,0.8-0.8
		C27.38,51.56,27.02,51.2,26.57,51.2z"/>
	<path class="st3" d="M43.83,51.2h-3.38c-0.44,0-0.8,0.36-0.8,0.8c0,0.44,0.36,0.8,0.8,0.8h3.38c0.44,0,0.8-0.36,0.8-0.8
		C44.63,51.56,44.27,51.2,43.83,51.2z"/>
	<circle class="st3" cx="33.45" cy="52.68" r="2.03"/>
</g>
</svg>
