<?xml version="1.0" encoding="utf-8"?>
<!-- Generator: Adobe Illustrator 24.0.2, SVG Export Plug-In . SVG Version: 6.00 Build 0)  -->
<svg version="1.1" xmlns="http://www.w3.org/2000/svg" xmlns:xlink="http://www.w3.org/1999/xlink" x="0px" y="0px"
	 viewBox="0 0 86 86" style="enable-background:new 0 0 86 86;" xml:space="preserve">
<style type="text/css">
	.st0{fill:#C1272D;}
	.st1{fill:url(#SVGID_3_);}
	.st2{fill:#FEF5F8;}
	.st3{fill:#B42022;}
	.st4{fill:#FAFAFA;stroke:#CCCCCC;stroke-miterlimit:10;}
	.st5{fill:#FFFFFF;stroke:#B3B3B3;stroke-miterlimit:10;}
	.st6{fill:#333333;}
	.st7{display:none;}
	.st8{display:inline;}
	.st9{fill:#00FFFF;}
</style>
<g id="Capa_1">
	<g>
		<g>
			<path class="st0" d="M46.78,64.2c-0.39,0-0.79-0.08-1.17-0.26c-1.01-0.46-1.63-1.43-1.63-2.54v-9.04l10.5-9.1l-10.5-9.1v-9.04
				c0-1.11,0.63-2.08,1.63-2.54c1.01-0.46,2.15-0.3,2.99,0.43l20.94,18.14c0.61,0.53,0.96,1.3,0.96,2.11c0,0.81-0.35,1.58-0.96,2.11
				L48.6,63.52C48.07,63.97,47.43,64.2,46.78,64.2z M46.98,53.74v7.21l20.41-17.68L46.98,25.59v7.21l9.65,8.36
				c0.61,0.53,0.96,1.3,0.96,2.11c0,0.81-0.35,1.58-0.96,2.11L46.98,53.74z M67.57,43.43C67.57,43.43,67.57,43.43,67.57,43.43
				L67.57,43.43z"/>
		</g>
		<g>
			<path class="st0" d="M33.87,64.2c-0.39,0-0.79-0.08-1.17-0.26c-1.01-0.46-1.63-1.43-1.63-2.54v-9.04l10.5-9.1l-10.5-9.1v-9.04
				c0-1.11,0.63-2.08,1.63-2.54c1.01-0.46,2.15-0.3,2.99,0.43l20.94,18.14c0.61,0.53,0.96,1.3,0.96,2.11c0,0.81-0.35,1.58-0.96,2.11
				L35.69,63.52C35.16,63.97,34.52,64.2,33.87,64.2z M34.07,53.74v7.21l20.41-17.68L34.07,25.59v7.21l9.65,8.36
				c0.61,0.53,0.96,1.3,0.96,2.11c0,0.81-0.35,1.58-0.96,2.11L34.07,53.74z"/>
		</g>
		<g>
			<path class="st0" d="M20.96,64.2c-0.39,0-0.79-0.08-1.17-0.26c-1.01-0.46-1.63-1.43-1.63-2.54V25.14c0-1.11,0.63-2.08,1.63-2.54
				c1.01-0.46,2.15-0.3,2.99,0.43l20.94,18.14c0.61,0.53,0.96,1.3,0.96,2.11c0,0.81-0.35,1.58-0.96,2.11L22.78,63.52
				C22.26,63.97,21.61,64.2,20.96,64.2z M21.16,25.59v35.36l20.41-17.68L21.16,25.59z M41.75,43.43
				C41.75,43.43,41.75,43.43,41.75,43.43L41.75,43.43z"/>
		</g>
	</g>
</g>
<g id="Capa_2" class="st7">
</g>
</svg>
