<?xml version="1.0" encoding="utf-8"?>
<!-- Generator: Adobe Illustrator 24.0.2, SVG Export Plug-In . SVG Version: 6.00 Build 0)  -->
<svg version="1.1" xmlns="http://www.w3.org/2000/svg" xmlns:xlink="http://www.w3.org/1999/xlink" x="0px" y="0px"
	 viewBox="0 0 86 86" style="enable-background:new 0 0 86 86;" xml:space="preserve">
<style type="text/css">
	.st0{fill:#C1272D;}
	.st1{fill:url(#SVGID_3_);}
	.st2{fill:#FEF5F8;}
	.st3{fill:#B42022;}
	.st4{fill:#FAFAFA;stroke:#CCCCCC;stroke-miterlimit:10;}
	.st5{fill:#FFFFFF;stroke:#B3B3B3;stroke-miterlimit:10;}
	.st6{fill:#333333;}
	.st7{display:none;}
	.st8{display:inline;}
	.st9{fill:#00FFFF;}
</style>
<g id="Capa_1">
	<g>
		<path class="st0" d="M44.26,65.96c0.17,0.02,0.28,0.04,0.4,0.04c0.85,0.01,1.69,0.01,2.54,0.01c0.62,0,1.07,0.39,1.09,0.93
			c0.02,0.61-0.41,1.05-1.07,1.05c-3.36,0.01-6.71,0-10.07,0c-0.62,0-1.05-0.39-1.06-0.95c-0.02-0.58,0.39-1.01,1.04-1.03
			c0.81-0.02,1.63-0.01,2.45-0.01c0.15,0,0.3-0.01,0.55-0.03c-0.41-0.55-0.76-1.04-1.12-1.52c-3.24-4.41-6.35-8.91-9.12-13.64
			c-1.77-3.02-3.43-6.09-4.67-9.37c-0.78-2.06-1.41-4.16-1.37-6.4c0.06-2.95,0.74-5.75,2.19-8.33c0.63-1.12,1.35-2.21,2.19-3.18
			c4.02-4.65,9.16-6.91,15.27-6.41c7.49,0.62,12.75,4.58,15.71,11.48c1.1,2.57,1.53,5.3,1.21,8.1c-0.24,2.09-0.94,4.05-1.76,5.98
			C57.21,46.11,45.08,64.86,44.26,65.96z M42.18,65.35c0.16-0.2,0.28-0.34,0.39-0.48c3.1-4.12,6.06-8.35,8.78-12.73
			c2.24-3.61,4.35-7.3,5.89-11.27c0.64-1.65,1.23-3.34,1.27-5.13c0.09-3.85-1.01-7.36-3.45-10.36c-4.18-5.15-9.62-7.19-16.13-5.96
			c-4.82,0.91-8.5,3.64-10.92,7.91c-2.23,3.93-2.85,8.08-1.28,12.44c1.23,3.41,2.88,6.6,4.7,9.72c2.68,4.59,5.68,8.98,8.81,13.27
			C40.86,63.61,41.51,64.45,42.18,65.35z"/>
		<g>
			<path class="st0" d="M42.14,26.8c-5.64,0-10.21,4.57-10.21,10.21s4.57,10.21,10.21,10.21S52.35,42.64,52.35,37
				S47.78,26.8,42.14,26.8z M42.14,45.24c-4.55,0-8.24-3.69-8.24-8.24c0-4.55,3.69-8.24,8.24-8.24s8.24,3.69,8.24,8.24
				C50.39,41.55,46.7,45.24,42.14,45.24z"/>
		</g>
	</g>
</g>
<g id="Capa_2" class="st7">
</g>
</svg>
