<?xml version="1.0" encoding="utf-8"?>
<!-- Generator: Adobe Illustrator 24.0.2, SVG Export Plug-In . SVG Version: 6.00 Build 0)  -->
<svg version="1.1" xmlns="http://www.w3.org/2000/svg" xmlns:xlink="http://www.w3.org/1999/xlink" x="0px" y="0px"
	 viewBox="0 0 86 86" style="enable-background:new 0 0 86 86;" xml:space="preserve">
<style type="text/css">
	.st0{fill:#C1272D;}
	.st1{fill:url(#SVGID_3_);}
	.st2{fill:#FEF5F8;}
	.st3{fill:#B42022;}
	.st4{fill:#FAFAFA;stroke:#CCCCCC;stroke-miterlimit:10;}
	.st5{fill:#FFFFFF;stroke:#B3B3B3;stroke-miterlimit:10;}
	.st6{fill:#333333;}
	.st7{display:none;}
	.st8{display:inline;}
	.st9{fill:#00FFFF;}
</style>
<g id="Capa_1">
	<path class="st0" d="M66.19,57.55c-0.64-0.51-1.25-1.14-1.88-1.81c-0.46-0.49-0.93-0.97-1.42-1.43c-0.18-0.17-0.23-0.24-0.23-0.59
		c0.03-3.89,0.04-8.07,0.01-13.16l0-0.19c-0.01-1.24-0.01-2.51-0.25-3.82c-1.45-7.86-6.01-13.14-13.55-15.71
		c0.02-1.78-0.57-3.45-1.67-4.68c-1.11-1.24-2.67-1.92-4.33-1.92c0,0,0,0,0,0c-1.82-0.08-3.36,0.53-4.48,1.75
		c-1.13,1.21-1.72,2.94-1.69,4.84c-8.08,2.6-13.33,9.4-13.71,17.83c-0.11,2.35-0.1,4.73-0.1,7.03c0,1.07,0,2.15-0.01,3.22
		c-0.01,0.67,0.04,1.34,0.09,1.98c0.09,1.22,0.17,2.36-0.14,3.1c-0.45,1.06-1.71,2.11-2.93,3.11l-0.58,0.48
		c-2.1,1.76-2.11,3.9-1.85,5.75l0.24,1.67h15.33c1.22,4.6,5.17,7.99,9.62,7.99c2.89,0,5.55-1.16,7.5-3.28
		c1.26-1.37,2.09-3.04,2.41-4.72h15.3l0.24-1.67C68.27,62.08,68.64,59.48,66.19,57.55z M47.28,67.08c-1.2,1.3-2.85,2.02-4.64,2.02
		c-2.31,0-4.48-1.69-5.5-4.06h11.38C48.27,65.76,47.84,66.47,47.28,67.08z M21.36,61.11c0.1-0.21,0.24-0.37,0.44-0.54l0.56-0.46
		c1.51-1.25,3.23-2.66,4.04-4.61c0.67-1.6,0.55-3.34,0.44-4.89c-0.04-0.59-0.08-1.16-0.08-1.67c0.01-1.09,0.01-2.17,0.01-3.26
		c0-2.25,0-4.58,0.1-6.85c0.31-6.84,4.63-12.35,11.28-14.38l0.12-0.04c2.16-0.63,2.46-2.09,2.33-3.2c-0.12-1.05,0.12-2.04,0.62-2.57
		c0.34-0.37,0.83-0.53,1.55-0.5c0.64,0,1.13,0.2,1.5,0.62c0.51,0.57,0.76,1.51,0.65,2.46c-0.18,1.57,0.6,2.65,2.31,3.2
		c6.42,2.07,10.13,6.27,11.34,12.84c0.18,0.96,0.18,2.02,0.19,3.13l0,0.19c0.03,5.07,0.03,9.23-0.01,13.1
		c-0.01,1.41,0.47,2.55,1.47,3.48c0.43,0.4,0.84,0.83,1.25,1.26c0.7,0.74,1.43,1.5,2.29,2.18c0.19,0.15,0.34,0.29,0.43,0.49H21.36z"
		/>
</g>
<g id="Capa_2" class="st7">
</g>
</svg>
