<?xml version="1.0" encoding="utf-8"?>
<!-- Generator: Adobe Illustrator 24.0.2, SVG Export Plug-In . SVG Version: 6.00 Build 0)  -->
<svg version="1.1" xmlns="http://www.w3.org/2000/svg" xmlns:xlink="http://www.w3.org/1999/xlink" x="0px" y="0px"
	 viewBox="0 0 86 86" style="enable-background:new 0 0 86 86;" xml:space="preserve">
<style type="text/css">
	.st0{fill:#C1272D;}
	.st1{fill:url(#SVGID_3_);}
	.st2{fill:#FEF5F8;}
	.st3{fill:#B42022;}
	.st4{fill:#FAFAFA;stroke:#CCCCCC;stroke-miterlimit:10;}
	.st5{fill:#FFFFFF;stroke:#B3B3B3;stroke-miterlimit:10;}
	.st6{fill:#333333;}
	.st7{display:none;}
	.st8{display:inline;}
	.st9{fill:#00FFFF;}
</style>
<g id="Capa_1">
	<g>
		<path class="st0" d="M37.17,46.88c-0.42-0.47-0.79-0.89-1.2-1.34C36.59,45.67,37.19,46.34,37.17,46.88z"/>
		<path class="st0" d="M66.44,54.48c-0.82-0.45-1.64-0.93-2.42-1.45c-1.92-1.26-3.82-2.53-5.72-3.82c-1.36-0.93-3.51-0.8-4.55,0.72
			c-0.43,0.63-0.92,1.21-1.38,1.82c-0.38,0.49-0.82,0.92-1.38,1.18c-1.74,0.82-3.43,0.61-4.96-0.46c-1.3-0.91-2.54-1.93-3.75-2.98
			c-2.53-2.21-4.83-4.64-6.87-7.31c-0.5-0.65-1.01-1.32-1.37-2.05c-0.86-1.76-0.73-4.24,1.42-5.71c0.56-0.38,1.06-0.84,1.62-1.22
			c1.41-0.97,1.67-3.06,0.71-4.44c-0.56-0.8-2.62-3.79-3.04-4.46c-0.78-1.26-1.56-2.51-2.3-3.79c-0.86-1.51-2.92-2.27-4.55-1.29
			c-0.69,0.41-1.41,0.77-2.11,1.15c-2.68,1.44-4.21,3.7-4.74,6.67c-0.43,2.42-0.24,4.82,0.31,7.2c0.87,3.78,2.46,7.25,4.52,10.51
			c2.77,4.38,6.2,8.19,10.07,11.62c1.61,1.43,3.31,2.76,5.1,3.97c3.18,2.15,6.57,3.86,10.26,4.95c0.14,0.04,0.28,0.08,0.42,0.11l0,0
			c2.57,0.77,4.57,0.83,5.38,0.81c0.06,0,0.11,0,0.17,0c0.9-0.07,1.82-0.09,2.71-0.25c2.58-0.45,4.66-1.73,6.07-3.97
			c0.59-0.93,1.08-1.94,1.66-2.88C68.75,57.54,68.09,55.39,66.44,54.48z M66.26,58.33c-0.27,0.49-0.53,0.98-0.81,1.47
			c-0.53,0.95-1.1,1.88-1.9,2.64c-1.41,1.34-3.15,1.89-5.04,2.03c-0.76,0.06-1.54,0.01-2.28,0.01c0,0,0,0,0,0
			c-1.53-0.1-3.1-0.47-3.77-0.64c-0.07-0.02-0.15-0.04-0.22-0.06c-0.01,0-0.02-0.01-0.03-0.01c-3.65-1-7-2.69-10.14-4.8
			c-2.9-1.96-5.54-4.23-7.99-6.73c-2.92-2.97-5.53-6.19-7.61-9.81c-1.48-2.59-2.66-5.3-3.36-8.21c-0.57-2.33-0.8-4.68-0.34-7.06
			c0.41-2.11,1.41-3.84,3.29-4.97c0.95-0.57,1.93-1.1,2.92-1.6c0.25-0.13,0.6-0.14,0.88-0.09c0.54,0.09,0.9,0.45,1.19,0.92
			c1.24,1.99,4.93,7.66,5.32,8.2c0.47,0.65,0.46,1.74-0.35,2.27c-0.61,0.4-1.16,0.88-1.75,1.32c-0.71,0.52-1.3,1.15-1.69,1.94
			c-1.13,2.28-0.9,4.5,0.43,6.59c2.65,4.39,9.29,10.07,11.72,11.89c0.92,0.69,1.93,1.17,3.07,1.35c2.41,0.38,4.43-0.29,5.95-2.26
			c0.47-0.6,0.93-1.21,1.38-1.82c0.36-0.48,0.84-0.7,1.41-0.59c0.35,0.07,0.7,0.24,1,0.43c2.09,1.36,4.16,2.75,6.25,4.11
			c0.59,0.39,1.21,0.73,1.82,1.09C66.54,56.51,66.78,57.39,66.26,58.33z"/>
	</g>
</g>
<g id="Capa_2" class="st7">
</g>
</svg>
