<?xml version="1.0" encoding="utf-8"?>
<!-- Generator: Adobe Illustrator 24.0.2, SVG Export Plug-In . SVG Version: 6.00 Build 0)  -->
<svg version="1.1" xmlns="http://www.w3.org/2000/svg" xmlns:xlink="http://www.w3.org/1999/xlink" x="0px" y="0px"
	 viewBox="0 0 86 86" style="enable-background:new 0 0 86 86;" xml:space="preserve">
<style type="text/css">
	.st0{fill:#C1272D;}
	.st1{fill:url(#SVGID_3_);}
	.st2{fill:#FEF5F8;}
	.st3{fill:#B42022;}
	.st4{fill:#FAFAFA;stroke:#CCCCCC;stroke-miterlimit:10;}
	.st5{fill:#FFFFFF;stroke:#B3B3B3;stroke-miterlimit:10;}
	.st6{fill:#333333;}
	.st7{display:none;}
	.st8{display:inline;}
	.st9{fill:#00FFFF;}
</style>
<g id="Capa_1">
	<g>
		<path class="st0" d="M59.9,48.17c-2.25-2.25-6.06-3.47-9.64-4.12c3.67-2.55,6.09-6.8,6.09-11.6c0-7.79-6.34-14.12-14.12-14.12
			c-7.79,0-14.12,6.34-14.12,14.12c0,4.87,2.48,9.18,6.24,11.72c-3.41,0.68-6.94,1.88-9.07,4.01c-4.9,4.9-3.82,16.26-3.78,16.74
			l0.05,0.5l0.32,0.39c0.23,0.27,5.54,6.45,18.71,7.13V73h1.64l0.35-0.01L42.95,73l1.64-0.01v-0.05
			c13.17-0.68,18.48-6.86,18.71-7.13l0.32-0.39l0.05-0.5C63.72,64.43,64.8,53.07,59.9,48.17z M31.38,32.45
			c0-5.98,4.86-10.84,10.84-10.84s10.84,4.86,10.84,10.84S48.2,43.29,42.22,43.29S31.38,38.42,31.38,32.45z M60.46,64.03
			c-1.31,1.24-6.61,5.5-17.53,5.68l-0.28,0.01l-0.08,0l-0.33-0.01c-10.94-0.18-16.23-4.45-17.53-5.68
			c-0.23-3.23-0.09-10.57,2.88-13.54c2.63-2.63,9.31-3.75,14.68-3.91l0.24-0.01c0.01,0,0.03,0,0.04,0l0.03,0l0.03,0l0.29,0.01
			c5.37,0.16,12.04,1.28,14.68,3.91C60.54,53.46,60.68,60.8,60.46,64.03z"/>
		<path class="st0" d="M34.19,34.18h15.86c0,0-1.64,6.56-7.65,6.56S34.19,34.18,34.19,34.18z"/>
	</g>
</g>
<g id="Capa_2" class="st7">
</g>
</svg>
