<?xml version="1.0" encoding="utf-8"?>
<!-- Generator: Adobe Illustrator 24.0.2, SVG Export Plug-In . SVG Version: 6.00 Build 0)  -->
<svg version="1.1" xmlns="http://www.w3.org/2000/svg" xmlns:xlink="http://www.w3.org/1999/xlink" x="0px" y="0px"
	 viewBox="0 0 86 86" style="enable-background:new 0 0 86 86;" xml:space="preserve">
<style type="text/css">
	.st0{fill:#C1272D;}
	.st1{fill:url(#SVGID_3_);}
	.st2{fill:#FEF5F8;}
	.st3{fill:#B42022;}
	.st4{fill:#FAFAFA;stroke:#CCCCCC;stroke-miterlimit:10;}
	.st5{fill:#FFFFFF;stroke:#B3B3B3;stroke-miterlimit:10;}
	.st6{fill:#333333;}
	.st7{display:none;}
	.st8{display:inline;}
	.st9{fill:#00FFFF;}
</style>
<g id="Capa_1">
	<g>
		<g>
			<path class="st0" d="M25.37,66.5c-1.66,0-3.33-0.63-4.6-1.9c-2.54-2.54-2.54-6.65,0-9.19l34.6-34.6c2.54-2.54,6.65-2.54,9.19,0
				c2.54,2.54,2.54,6.65,0,9.19l-34.6,34.6C28.7,65.87,27.04,66.5,25.37,66.5z"/>
		</g>
		<g>
			<path class="st0" d="M59.97,66.5c-1.66,0-3.33-0.63-4.6-1.9L20.78,30c-2.54-2.54-2.54-6.65,0-9.19c2.54-2.54,6.65-2.54,9.19,0
				l34.6,34.6c2.54,2.54,2.54,6.65,0,9.19C63.3,65.87,61.64,66.5,59.97,66.5z"/>
		</g>
	</g>
</g>
<g id="Capa_2" class="st7">
</g>
</svg>
