<?xml version="1.0" encoding="utf-8"?>
<!-- Generator: Adobe Illustrator 24.0.2, SVG Export Plug-In . SVG Version: 6.00 Build 0)  -->
<svg version="1.1" xmlns="http://www.w3.org/2000/svg" xmlns:xlink="http://www.w3.org/1999/xlink" x="0px" y="0px"
	 viewBox="0 0 86 86" style="enable-background:new 0 0 86 86;" xml:space="preserve">
<style type="text/css">
	.st0{fill:#C1272D;}
	.st1{fill:url(#SVGID_3_);}
	.st2{fill:#FEF5F8;}
	.st3{fill:#B42022;}
	.st4{fill:#FAFAFA;stroke:#CCCCCC;stroke-miterlimit:10;}
	.st5{fill:#FFFFFF;stroke:#B3B3B3;stroke-miterlimit:10;}
	.st6{fill:#333333;}
	.st7{display:none;}
	.st8{display:inline;}
	.st9{fill:#00FFFF;}
</style>
<g id="Capa_1">
	<g>
		<path class="st0" d="M66.03,26.1c-8.88,0-17.76,0.04-26.64-0.03c-2.5-0.02-4.61,0.48-6,2.76c-2.27-0.82-4.08-0.1-5.7,1.43
			c-0.8,0.75-1.62,1.49-2.5,2.14c-3.87,2.87-7.77,5.71-11.65,8.57c0,0.12,0,0.24,0,0.36c0,0.15,0,0.29,0,0.44v18.48
			c0,0.18,0,0.35,0,0.53v1.17h1.65c6.53-0.49,13.11-0.43,19.56-2.07c1.51,2.31,3.34,2.57,6.88,0.96c1.83,2.93,5.45,2.76,7.41,0.91
			c0.26-0.25,0.78-0.42,1.12-0.35c2.97,0.61,5.17-0.45,6.34-3.28c0.46-1.12,0.69-2.33,1.05-3.6c2.95,0,5.94,0,8.92,0
			c3.89,0,6.44-0.71,6.44-4.31c0-6.51,0-13.02,0-19.53C72.91,26.92,70.06,26.1,66.03,26.1z M39.98,58.96
			c-0.38,0.2-0.81,0.47-1.2,0.45c-0.6-0.03-1.19-0.29-1.79-0.46c0.28-0.48,0.49-1.02,0.85-1.42c0.76-0.85,1.58-1.65,2.42-2.43
			c0.32-0.29,0.75-0.46,1.45-0.88C41.47,56.28,41.75,58.02,39.98,58.96z M42.13,51.02c-1.06,0.57-2.08,1.24-3.04,1.96
			c-0.66,0.5-1.22,1.14-1.76,1.78c-2.31,2.68-5.31,3.72-8.76,3.86c-4.22,0.16-8.43,0.4-12.64,0.64c-0.24,0.01-0.49,0.02-0.74,0.03
			V42.52c0.21-0.08,0.42-0.2,0.64-0.37c4.55-3.44,9.11-6.88,13.65-10.34c0.9-0.68,1.76-1.36,3.06-0.71c0,4.66,0.01,9.36-0.02,14.06
			c0,0.27-0.28,0.57-0.5,0.79c-0.18,0.17-0.46,0.23-0.7,0.35c-0.74,0.35-1.34,0.82-0.91,1.72c0.43,0.9,1.19,0.72,1.92,0.39
			c3.78-1.75,7.55-3.53,11.35-5.25c1.23-0.56,2.5-1.12,3.8-1.41c2.03-0.46,3.28,0.96,2.83,3.01c-0.35,1.56-1.35,2.7-2.66,3.45
			C45.84,49.24,43.94,50.04,42.13,51.02z M48.31,58.75c-0.05,0.94-1.69,2.06-2.78,2c-1.29-0.07-1.89-0.76-1.9-2.19
			c-0.05-3.86,0.8-4.58,4.69-3.95c0,0,0.01,0,0.01,0C48.32,56.04,48.37,57.4,48.31,58.75z M52.93,58.89
			c-0.49,0.3-1.29,0.4-1.82,0.22c-0.31-0.11-0.51-0.95-0.52-1.47c-0.06-3.1-0.01-3.13,3.03-3.11c0.39,0,0.78,0,1.38,0
			C54.76,56.35,54.46,57.95,52.93,58.89z M70.53,49.02c-0.01,2-1.06,3.17-3.05,3.18c-7.08,0.04-14.16,0.01-21.24,0.01
			c-0.08,0-0.15-0.06-0.28-0.12c1.43-0.96,2.86-1.81,4.16-2.84c1.45-1.15,2.39-2.68,2.55-4.59c0.31-3.77-2.51-6.27-6.11-5.09
			c-2.98,0.98-5.8,2.47-8.69,3.73c-0.92,0.4-1.83,0.82-2.96,1.32c0-1.42,0-2.67,0-3.92c0-1.27,0.09-9.16,0.09-9.16
			c0.2-1.87,1.42-3.11,3.23-3.11c9.63-0.03,19.26-0.03,28.89,0c1.98,0.01,3.22,1.23,3.34,3.11C70.46,31.54,70.54,45.28,70.53,49.02z
			"/>
	</g>
</g>
<g id="Capa_2" class="st7">
</g>
</svg>
