<?xml version="1.0" encoding="utf-8"?>
<!-- Generator: Adobe Illustrator 24.0.2, SVG Export Plug-In . SVG Version: 6.00 Build 0)  -->
<svg version="1.1" xmlns="http://www.w3.org/2000/svg" xmlns:xlink="http://www.w3.org/1999/xlink" x="0px" y="0px"
	 viewBox="0 0 86 86" style="enable-background:new 0 0 86 86;" xml:space="preserve">
<style type="text/css">
	.st0{fill:#C1272D;}
	.st1{fill:url(#SVGID_3_);}
	.st2{fill:#FEF5F8;}
	.st3{fill:#B42022;}
	.st4{fill:#FAFAFA;stroke:#CCCCCC;stroke-miterlimit:10;}
	.st5{fill:#FFFFFF;stroke:#B3B3B3;stroke-miterlimit:10;}
	.st6{fill:#333333;}
	.st7{display:none;}
	.st8{display:inline;}
	.st9{fill:#00FFFF;}
</style>
<g id="Capa_1">
	<g>
		<path class="st0" d="M73.12,49.18c-0.7-3.72-3.02-6.4-6.9-7.98c-1.26-0.51-2.57-0.89-3.99-1.14l-1.32-0.23l1.19-0.61
			c3.71-1.9,6.02-5.66,6.03-9.82c0-2.95-1.14-5.72-3.23-7.8c-2.08-2.08-4.84-3.23-7.78-3.23c-4.47,0-8.58,2.81-10.23,6.97
			l-0.16,0.41l-0.41-0.15c-2.42-0.89-5.17-0.9-7.63,0.01l-0.41,0.15l-0.16-0.41c-0.55-1.41-1.38-2.68-2.46-3.76
			c-2.08-2.08-4.84-3.23-7.78-3.23c-6.07,0-11.01,4.95-11.01,11.02c0,2.94,1.15,5.7,3.23,7.79c0.83,0.83,1.77,1.51,2.8,2.04
			l1.21,0.61l-1.34,0.23c-1.77,0.3-3.32,0.78-4.74,1.46c-3.93,1.87-6.06,4.89-6.31,8.96c-0.09,1.49-0.07,3.01-0.05,4.47l0.02,1.17
			c0.01,0.72,0.48,1.31,0.89,1.59c0.61,0.42,1.44,1,2.3,1.47c1.43,0.78,2.98,1.33,4.74,1.68c2.34,0.54,4.38,0.87,6.27,1.01
			l0.41,0.03l0.01,0.77c0.01,0.73,0.49,1.31,0.9,1.6c0.71,0.49,1.48,1.02,2.29,1.46c1.43,0.78,2.98,1.33,4.74,1.68
			c3.25,0.75,5.93,1.09,8.43,1.09c2.69,0,5.01-0.43,7.17-0.86c0.25-0.06,0.5-0.12,0.74-0.17c0.61-0.14,1.12-0.25,1.64-0.41
			c2.29-0.7,4.13-1.63,5.62-2.84c0.5-0.4,0.84-1.1,0.85-1.74l0.01-0.59l0.41-0.03c1.94-0.13,3.72-0.46,5.35-0.79l0.77-0.18
			c0.55-0.12,1.07-0.23,1.6-0.4c2.29-0.7,4.12-1.63,5.62-2.83c0.51-0.41,0.84-1.09,0.85-1.74c0.03-1.47,0.04-3,0.01-4.7
			C73.31,50.5,73.24,49.82,73.12,49.18z M49.05,26.72c1.16-3.49,4.4-5.84,8.07-5.84l0.01,0.02v-0.02c2.26,0,4.39,0.88,6,2.49
			c1.61,1.61,2.5,3.75,2.5,6.03c-0.01,4.7-3.82,8.53-8.51,8.53c-1.16,0-2.3-0.24-3.37-0.71l-0.29-0.13l0.02-0.32
			c0.02-0.27,0.03-0.54,0.03-0.82c0-2.95-1.14-5.72-3.23-7.8c-0.32-0.32-0.67-0.62-1.07-0.93l-0.26-0.19L49.05,26.72z M38.85,28.27
			c2.32-1.11,4.99-1.11,7.3-0.01c0.89,0.42,1.68,0.98,2.36,1.66c0.04,0.04,0.08,0.08,0.11,0.13l0.08,0.09
			c1.31,1.4,2.1,3.15,2.27,5.05c0.02,0.25,0.04,0.5,0.04,0.76c0,0.79-0.12,1.59-0.34,2.37c-0.24,0.82-0.6,1.6-1.06,2.3
			c-1.43,2.17-3.71,3.55-6.26,3.81c-0.28,0.03-0.56,0.04-0.84,0.04c-0.28,0-0.55-0.01-0.82-0.04c-1.97-0.19-3.76-1.04-5.17-2.47
			c-0.4-0.41-0.77-0.85-1.08-1.33c-0.47-0.71-0.83-1.48-1.08-2.32C34.11,37.55,34,36.75,34,35.95c0-0.25,0.02-0.5,0.04-0.75
			c0.16-1.87,0.97-3.67,2.27-5.06C37.03,29.36,37.89,28.73,38.85,28.27z M21.88,35.42c-1.61-1.62-2.5-3.76-2.5-6.03
			c0-4.69,3.82-8.51,8.51-8.52c2.26,0,4.39,0.88,6,2.49c0.94,0.94,1.66,2.1,2.07,3.36l0.1,0.3l-0.25,0.19
			c-2.7,2.08-4.31,5.34-4.31,8.72c0,0.27,0.01,0.54,0.03,0.82l0.02,0.32l-0.29,0.13c-1.08,0.47-2.21,0.71-3.38,0.71
			C25.62,37.92,23.49,37.03,21.88,35.42z M26.35,57.04c-0.04,0.56-0.06,1.17-0.06,1.87l-0.01,0.48l-0.48-0.04
			c-1.69-0.14-3.54-0.45-5.65-0.94c-1.53-0.31-2.86-0.78-4.07-1.43c-0.58-0.31-1.15-0.7-1.69-1.07l-0.19-0.13l-0.01-0.87
			c-0.02-1.41-0.04-2.86,0.04-4.29c0.19-3.14,1.79-5.38,4.88-6.85c1.94-0.92,4.17-1.42,7.01-1.57c3.05-0.15,5.47,0.02,7.64,0.56
			l0.15,0.04L34,42.94c0.25,0.3,0.48,0.57,0.72,0.81c0.83,0.83,1.77,1.51,2.8,2.04l1.21,0.61l-1.34,0.23
			c-1.76,0.3-3.32,0.78-4.74,1.46C28.72,49.96,26.59,52.97,26.35,57.04z M56.19,61.97l-0.01,0.4l-0.17,0.13
			c-1.21,0.92-2.65,1.62-4.53,2.19c-0.43,0.13-0.88,0.23-1.44,0.35l-0.76,0.17c-2.26,0.46-4.26,0.8-6.62,0.8
			c-2.16,0-4.63-0.29-7.9-1.04c-1.53-0.31-2.86-0.78-4.07-1.43c-0.58-0.32-1.16-0.7-1.69-1.07l-0.19-0.13l-0.01-0.87
			c-0.01-0.68-0.02-1.37-0.02-2.06c0-0.87,0.02-1.58,0.06-2.23c0.19-3.14,1.79-5.38,4.88-6.85c1.94-0.92,4.17-1.42,7.02-1.57
			l0.44-0.01c0.9-0.04,1.73-0.05,2.51-0.02l0.11,0.02l0.05,0c2.68,0.09,4.82,0.51,6.81,1.33c3.08,1.25,4.84,3.25,5.38,6.12
			c0.09,0.49,0.14,1.03,0.15,1.65c0.01,0.54,0.01,1.06,0.02,1.56C56.21,60.31,56.21,61.16,56.19,61.97z M70.81,55.59l-0.01,0.22
			l-0.17,0.13c-1.21,0.92-2.65,1.62-4.53,2.2c-0.41,0.13-0.85,0.22-1.43,0.35l-0.77,0.18c-1.48,0.3-3.07,0.59-4.71,0.72l-0.48,0.04
			l0-0.48c0-0.37-0.01-0.74-0.01-1.13c-0.01-0.76-0.08-1.44-0.2-2.07c-0.7-3.72-3.02-6.4-6.9-7.98c-1.26-0.51-2.57-0.88-3.99-1.14
			l-1.32-0.23l1.19-0.61c1.36-0.7,2.55-1.65,3.52-2.84l0.09-0.12l0.15-0.04c1.25-0.3,2.59-0.48,4.12-0.56
			c4.12-0.21,7.18,0.19,9.91,1.3c3.08,1.25,4.84,3.25,5.38,6.12c0.09,0.49,0.14,1.04,0.15,1.65C70.84,52.89,70.84,54.29,70.81,55.59
			z"/>
	</g>
</g>
<g id="Capa_2" class="st7">
</g>
</svg>
