<?xml version="1.0" encoding="utf-8"?>
<!-- Generator: Adobe Illustrator 24.0.2, SVG Export Plug-In . SVG Version: 6.00 Build 0)  -->
<svg version="1.1" xmlns="http://www.w3.org/2000/svg" xmlns:xlink="http://www.w3.org/1999/xlink" x="0px" y="0px"
	 viewBox="0 0 86 86" style="enable-background:new 0 0 86 86;" xml:space="preserve">
<style type="text/css">
	.st0{fill:#C1272D;}
	.st1{fill:url(#SVGID_3_);}
	.st2{fill:#FEF5F8;}
	.st3{fill:#B42022;}
	.st4{fill:#FAFAFA;stroke:#CCCCCC;stroke-miterlimit:10;}
	.st5{fill:#FFFFFF;stroke:#B3B3B3;stroke-miterlimit:10;}
	.st6{fill:#333333;}
	.st7{display:none;}
	.st8{display:inline;}
	.st9{fill:#00FFFF;}
</style>
<g id="Capa_1">
	<g>
		<path class="st0" d="M60.85,47.94c-2.23-2.23-6.01-3.44-9.57-4.09c3.65-2.53,6.04-6.75,6.04-11.51c0-7.73-6.29-14.01-14.01-14.01
			c-7.73,0-14.01,6.29-14.01,14.01c0,4.83,2.46,9.1,6.2,11.62c-3.38,0.67-6.88,1.87-9,3.98c-4.86,4.86-3.79,16.13-3.75,16.61
			l0.05,0.5l0.32,0.38c0.23,0.27,5.49,6.4,18.56,7.08v0.06h1.63l0.35-0.01l0.38,0.01l1.63-0.01v-0.05
			c13.07-0.67,18.34-6.81,18.56-7.08l0.32-0.38l0.05-0.5C64.65,64.08,65.71,52.8,60.85,47.94z M32.55,32.34
			c0-5.93,4.83-10.76,10.76-10.76s10.76,4.83,10.76,10.76s-4.83,10.76-10.76,10.76S32.55,38.27,32.55,32.34z M61.41,63.67
			c-1.3,1.23-6.56,5.46-17.4,5.64l-0.27,0.01l-0.08,0l-0.32-0.01c-10.85-0.17-16.1-4.41-17.4-5.63c-0.23-3.21-0.09-10.49,2.86-13.43
			c2.61-2.61,9.24-3.72,14.56-3.88l0.24-0.01c0.01,0,0.03,0,0.04,0l0.03,0l0.03,0l0.29,0.01c5.33,0.16,11.95,1.27,14.56,3.88
			C61.49,53.19,61.63,60.47,61.41,63.67z"/>
	</g>
</g>
<g id="Capa_2" class="st7">
</g>
</svg>
